<svg width="96" height="96" xmlns="http://www.w3.org/2000/svg" xmlns:xlink="http://www.w3.org/1999/xlink" overflow="hidden"><defs><clipPath id="clip0"><rect x="496" y="252" width="96" height="96"/></clipPath></defs><g clip-path="url(#clip0)" transform="translate(-496 -252)"><path d="M552 263C552 267.418 548.418 271 544 271 539.582 271 536 267.418 536 263 536 258.582 539.582 255 544 255 548.418 255 552 258.582 552 263Z"/><path d="M565.8 304.2 560.2 280.4C560 279.6 559.6 278.8 559 278.2 556.6 276.2 553.8 274.8 550.6 273.8 548.4 273.4 546.2 273 544 273 541.8 273 539.6 273.4 537.4 274 534.2 274.8 531.4 276.4 529 278.4 528.4 279 528 279.8 527.8 280.6L522.2 304.4C522.2 304.6 522 305 522 305.4 522 307.6 523.8 309.4 526 309.4 527.8 309.4 529.4 308 529.8 306.4L534 289 534 345 542 345 542 309 546 309 546 345 554 345 554 288.8 558.2 306.2C558.6 307.8 560.2 309.2 562 309.2 564.2 309.2 566 307.4 566 305.2 566 304.8 565.8 304.4 565.8 304.2Z"/></g></svg>