<svg width="96" height="96" xmlns="http://www.w3.org/2000/svg" xmlns:xlink="http://www.w3.org/1999/xlink" overflow="hidden"><defs><clipPath id="clip0"><rect x="868" y="250" width="96" height="96"/></clipPath></defs><g clip-path="url(#clip0)" transform="translate(-868 -250)"><path d="M935.187 299.009C935.636 296.693 934.37 294.385 932.176 293.519L924.895 290.619 919.736 278.71C918.455 275.275 915.174 272.998 911.508 273 909.674 273.007 907.885 273.575 906.383 274.628L895.24 282.115C894.257 282.839 893.542 283.869 893.209 285.044L890.479 298.215C889.852 300.813 891.449 303.427 894.047 304.055 894.08 304.063 894.113 304.071 894.147 304.078 894.684 304.206 895.223 303.874 895.351 303.336 895.479 302.799 895.147 302.26 894.61 302.132 894.603 302.131 894.597 302.129 894.591 302.128 893.06 301.806 892.08 300.304 892.402 298.772 892.411 298.728 892.422 298.684 892.433 298.64L895.146 285.535C895.36 284.819 895.799 284.191 896.398 283.745L907.51 276.28C908.681 275.455 910.077 275.008 911.51 275 914.357 275.002 916.9 276.779 917.881 279.452L923.224 291.8C923.329 292.043 923.526 292.234 923.772 292.332L931.437 295.381C932.94 295.979 933.673 297.681 933.075 299.184 933.06 299.222 933.044 299.259 933.028 299.296 933.019 299.318 933.004 299.335 932.994 299.356 932.045 299.695 931.196 300.268 930.526 301.02 930.095 301.048 929.664 300.979 929.263 300.82L919.946 297.084C919.438 296.868 918.851 297.105 918.634 297.613 918.418 298.121 918.655 298.708 919.163 298.924 919.176 298.93 919.189 298.935 919.202 298.94L928.518 302.677C928.797 302.786 929.084 302.87 929.378 302.928 928.557 305.122 929.097 307.593 930.757 309.246 931.154 309.63 931.787 309.619 932.171 309.221 932.545 308.834 932.545 308.22 932.171 307.832 930.837 306.504 930.617 304.422 931.643 302.844 932.691 302.563 933.615 301.941 934.271 301.077 936.42 300.655 938.505 302.056 938.926 304.206 938.977 304.467 939.002 304.733 939 305L939 340.255C939 340.807 939.448 341.255 940 341.255 940.552 341.255 941 340.807 941 340.255L941 305C940.997 301.762 938.424 299.11 935.187 299.009Z"/><path d="M921.772 311.528 915.229 304.328 915.229 285.969C915.229 285.417 914.781 284.969 914.229 284.969 913.677 284.969 913.229 285.417 913.229 285.969L913.229 304.716C913.229 304.965 913.322 305.204 913.489 305.388L920.272 312.851C920.725 313.355 920.985 314.003 921.005 314.68L921.977 334.116C922.062 335.695 920.861 337.048 919.283 337.153L919.083 337.153C917.551 337.137 916.292 335.94 916.2 334.411L915.325 316.332C915.314 316.101 915.223 315.881 915.068 315.71L910.468 310.617C909.249 309.265 907.791 308.149 906.168 307.326L905.868 307.173C903.197 305.811 901.554 303.028 901.654 300.031L901.733 298.473C901.946 295.057 902.284 290.758 902.772 287.434 902.867 286.89 902.503 286.372 901.959 286.277 901.415 286.182 900.897 286.546 900.802 287.09 900.799 287.108 900.796 287.125 900.794 287.143 900.227 291 899.861 296.114 899.654 299.724 899.654 299.792 899.654 299.859 899.654 299.924L898.755 317.9 894.984 335.016C894.395 337.609 895.981 340.199 898.559 340.852 898.945 340.967 899.347 341.018 899.75 341 902.021 340.973 903.984 339.408 904.516 337.2L908.403 319.7C908.425 319.613 908.439 319.524 908.445 319.434 908.491 319.277 908.517 319.115 908.522 318.951L908.741 314.662 907.5 313.3C907.29 313.067 907.069 312.846 906.841 312.634L906.523 318.86C906.523 318.877 906.503 318.943 906.503 318.96 906.467 319.091 906.443 319.225 906.43 319.36L902.563 336.77C902.246 338.069 901.087 338.988 899.75 339 899.533 339.012 899.315 338.988 899.106 338.93 897.555 338.558 896.588 337.01 896.936 335.453L900.726 318.253C900.738 318.199 900.746 318.143 900.748 318.088L901.371 305.773C902.285 307.12 903.523 308.216 904.971 308.96L905.271 309.113C906.674 309.827 907.935 310.793 908.989 311.962L913.347 316.79 914.2 334.507C914.354 337.099 916.489 339.13 919.086 339.153L919.326 339.153C922.024 339.016 924.103 336.721 923.972 334.022L923 314.63C922.974 313.482 922.539 312.382 921.772 311.528Z"/><path d="M917.5 272.006C921.918 272.006 925.5 268.424 925.5 264.006 925.5 259.588 921.918 256.006 917.5 256.006 913.082 256.006 909.5 259.588 909.5 264.006 909.5 268.424 913.082 272.006 917.5 272.006ZM917.5 258.006C920.814 258.006 923.5 260.692 923.5 264.006 923.5 267.32 920.814 270.006 917.5 270.006 914.186 270.006 911.5 267.32 911.5 264.006 911.502 260.692 914.186 258.005 917.5 258Z"/></g></svg>