<svg width="96" height="96" xmlns="http://www.w3.org/2000/svg" xmlns:xlink="http://www.w3.org/1999/xlink" overflow="hidden"><defs><clipPath id="clip0"><rect x="215" y="294" width="96" height="96"/></clipPath></defs><g clip-path="url(#clip0)" transform="translate(-215 -294)"><path d="M295 360C294.948 357.495 293.773 355.145 291.8 353.6 287.4 350 281.8 347.6 276.2 346 271.922 344.69 267.474 344.017 263 344 258.531 344.077 254.092 344.75 249.8 346 244.207 347.632 238.932 350.202 234.2 353.6 232.227 355.145 231.052 357.495 231 360L231 376 295 376Z"/><path d="M260 319.75C262.6 318.22 269 313.28 269 313.28L269 313.28C270.01 313.367 270.971 313.754 271.76 314.39 273.681 315.738 275.307 317.464 276.54 319.46 277.65 321.12 278.6 322.46 278.89 322.86L278.89 322.86 279 323 279 323C279.5 322 279.48 319.21 279.13 316.67 278.64 313.17 278.24 312.13 276 310.25 274.573 308.957 272.668 308.322 270.75 308.5 268.148 306.481 265.013 305.264 261.73 305 256.73 304.82 251.27 307.43 248.95 310.49 245.44 315.09 245.83 318.09 245.83 319.16 245.83 320.23 244.6 322.09 245.46 322.09 246.02 322.09 246.57 322.09 247.13 322.09L247.13 322.09C250.3 322 256.77 321.65 260 319.75Z"/><path d="M277.42 324.17C277.37 324.1 276.27 322.57 274.93 320.58 273.829 318.775 272.369 317.216 270.64 316 270.303 315.755 269.937 315.553 269.55 315.4 267.77 316.75 263.19 320.19 261.01 321.46 257.55 323.46 251.24 323.99 247.01 324.08 247.12 332.916 254.371 339.99 263.207 339.88 271.099 339.783 277.741 333.944 278.85 326.13Z"/></g></svg>