<svg width="96" height="96" xmlns="http://www.w3.org/2000/svg" xmlns:xlink="http://www.w3.org/1999/xlink" overflow="hidden"><defs><clipPath id="clip0"><rect x="642" y="88" width="96" height="96"/></clipPath></defs><g clip-path="url(#clip0)" transform="translate(-642 -88)"><path d="M711 135C710.63 134.984 710.26 135.017 709.9 135.1 709.604 133.832 708.708 132.787 707.5 132.3L699 128.9 693.5 116.2C692.331 113.071 689.341 110.997 686 111 684.317 111.007 682.676 111.531 681.3 112.5L667.79 121.6C666.978 122.194 666.381 123.036 666.09 124L663.09 137C662.592 139.152 663.933 141.301 666.085 141.799 666.087 141.799 666.088 141.8 666.09 141.8 666.383 141.883 666.687 141.916 666.99 141.9 668.846 141.88 670.451 140.603 670.89 138.8L673.49 127.4 676 125.7C675.79 127.18 675.61 128.59 675.47 129.9L666.76 156 673.91 156 673.91 156.3 670 174C669.502 176.152 670.843 178.301 672.995 178.799 672.997 178.799 672.998 178.8 673 178.8 673.292 178.883 673.596 178.916 673.9 178.9 675.756 178.88 677.361 177.603 677.8 175.8L681.8 157.8C681.8 157.6 681.9 157.4 681.9 157.2L682 156 686.4 156 687.4 173.3C687.517 175.423 689.274 177.083 691.4 177.08L691.62 177.08C693.826 176.956 695.514 175.068 695.39 172.863 695.39 172.862 695.39 172.861 695.39 172.86L694.42 156 697.76 156 688.76 129.1C688.76 129.1 688.86 126.4 688.86 126.3L692.06 133.6C692.468 134.576 693.266 135.338 694.26 135.7L704.16 139.7C703.874 140.432 703.738 141.214 703.76 142 703.756 144.103 704.714 146.092 706.36 147.4L706.46 147.5C706.814 147.825 707.279 148.004 707.76 148 708.865 148 709.76 147.105 709.76 146 709.792 145.363 709.489 144.756 708.96 144.4 708.367 143.738 708.027 142.888 708 142 708 140.343 709.343 139 711 139 712.657 139 714 140.343 714 142L714 177C714 178.105 714.895 179 716 179 717.105 179 718 178.105 718 177L718 142C718 138.134 714.866 135 711 135Z"/><path d="M699.5 102C699.5 106.418 695.918 110 691.5 110 687.082 110 683.5 106.418 683.5 102 683.5 97.5817 687.082 94 691.5 94 695.918 94 699.5 97.5817 699.5 102Z"/></g></svg>