<svg width="96" height="96" xmlns="http://www.w3.org/2000/svg" xmlns:xlink="http://www.w3.org/1999/xlink" overflow="hidden"><defs><clipPath id="clip0"><rect x="454" y="61" width="96" height="96"/></clipPath></defs><g clip-path="url(#clip0)" transform="translate(-454 -61)"><path d="M510.1 72C510.1 76.4183 506.518 80 502.1 80 497.682 80 494.1 76.4183 494.1 72 494.1 67.5817 497.682 64 502.1 64 506.518 64 510.1 67.5817 510.1 72Z"/><path d="M523.9 112.8 516.7 88C516.5 87 515.9 86.2 515.1 85.8 512.7 84.2 509.9 83.2 506.7 82.4 505.1 82.2 503.7 82 502.1 82 500.5 82 499.1 82.2 497.5 82.4 494.3 83 491.5 84.2 489.1 85.8 488.3 86.4 487.7 87 487.5 88L480.1 112.8C479.5 115 480.7 117.2 482.9 117.8 483.3 118 483.7 118 484.1 118 485.9 118 487.5 116.8 487.9 115.2L494.1 94.2 494.1 101.2 486.7 126 492.1 126 492.1 154 500.1 154 500.1 126 504.1 126 504.1 154 512.1 154 512.1 126 517.5 126 510.1 101.2 510.1 94.2 516.3 115.2C516.9 117 518.5 118 520.1 118 520.5 118 520.9 118 521.3 117.8 523.3 117.2 524.5 115 523.9 112.8Z"/></g></svg>