<svg width="96" height="96" xmlns="http://www.w3.org/2000/svg" xmlns:xlink="http://www.w3.org/1999/xlink" overflow="hidden"><defs><clipPath id="clip0"><rect x="817" y="88" width="96" height="96"/></clipPath></defs><g clip-path="url(#clip0)" transform="translate(-817 -88)"><path d="M897 154C896.948 151.495 895.773 149.145 893.8 147.6 889.4 144 883.8 141.6 878.2 140 873.922 138.69 869.474 138.016 865 138 860.531 138.077 856.092 138.75 851.8 140 846.207 141.632 840.932 144.202 836.2 147.6 834.227 149.145 833.052 151.495 833 154L833 170 897 170Z"/><path d="M882.11 129.6C881.19 126 884.71 117 884.74 110.66 884.74 105.59 883.3 103.32 880.58 101.78 879.01 100.89 875.39 101.71 875.39 101.71 875.39 101.71 873.52 98.17 867.26 96.22 862.116 94.8195 856.627 95.521 852 98.17 848.13 100.67 846.26 103.42 846.17 112.88 846.09 121.55 847.28 129.25 846.73 132.88 846.476 134.889 845.712 136.8 844.51 138.43 844.51 138.43 850.51 139.2 853.86 137.43 855.546 136.299 857.144 135.042 858.64 133.67 853.508 131.276 849.766 126.65 848.5 121.13 848.37 120.65 847.5 117.51 848.89 115.75 849.65 114.75 851.39 114.47 854.29 113.96 857.761 113.503 861.149 112.55 864.35 111.13 867.948 109.321 871.285 107.033 874.27 104.33 874.664 103.942 875.297 103.947 875.684 104.341 875.831 104.49 875.928 104.683 875.96 104.89 876.198 106.535 876.77 108.114 877.64 109.53 878.048 110.052 878.55 110.493 879.12 110.83 879.785 111.228 880.358 111.764 880.8 112.4 881.522 113.809 881.931 115.358 882 116.94 881.935 124.237 877.599 130.819 870.92 133.76 872.18 134.87 873.83 136.24 875.65 137.56 878.65 139.73 885.9 136.73 885.9 136.73 885.9 136.73 883.56 135.33 882.11 129.6Z"/><path d="M880 117C879.947 115.791 879.654 114.605 879.14 113.51 878.847 113.096 878.464 112.754 878.02 112.51 877.255 112.049 876.578 111.457 876.02 110.76 875.215 109.602 874.635 108.302 874.31 106.93 871.518 109.274 868.464 111.287 865.21 112.93 861.832 114.433 858.255 115.443 854.59 115.93 852.9 116.23 850.79 116.6 850.43 116.98 849.83 117.76 850.14 119.75 850.43 120.59 852.14 127.8 858.26 133 865 133 873 133 880 125.52 880 117Z"/></g></svg>